<?xml version="1.0" encoding="UTF-8"?>
<svg version="1.1" xmlns="http://www.w3.org/2000/svg" width="446" height="448">
<path d="M0 0 C0.80041214 -0.00705963 1.60082428 -0.01411926 2.42549133 -0.02139282 C35.85202064 -0.24928948 35.85202064 -0.24928948 50.390625 3.203125 C51.25284668 3.40180176 52.11506836 3.60047852 53.00341797 3.80517578 C102.31460874 15.45864359 146.31113692 45.51687194 173.28125 88.75 C190.31068126 116.9426452 201.58603268 149.16929304 201.52001953 182.3605957 C201.52174636 183.45892101 201.52347319 184.55724632 201.52525234 185.68885422 C201.5295963 189.33555347 201.52665449 192.9822064 201.5234375 196.62890625 C201.52449562 199.21886713 201.52588095 201.8088279 201.52757263 204.39878845 C201.53087255 211.33724229 201.52600601 218.2756761 201.51939774 225.21412659 C201.51538196 229.50672374 201.51354503 233.79932033 201.51193237 238.09191895 C201.49693995 273.32834082 201.40349012 308.56319387 200.98445892 343.79751205 C200.95310897 346.45448391 200.92338562 349.11147045 200.89385986 351.76846313 C200.84755424 355.86147744 200.79542874 359.95437268 200.73781013 364.04724312 C200.71756507 365.51667918 200.6987599 366.98613592 200.68151665 368.45561028 C200.65776838 370.42261873 200.62707713 372.38953983 200.59594727 374.35644531 C200.57263084 375.99144989 200.57263084 375.99144989 200.54884338 377.65948486 C200.390625 380.203125 200.390625 380.203125 199.390625 382.203125 C178.17697675 382.22671444 156.96333074 382.2442298 135.74967194 382.25493717 C125.89495906 382.26004576 116.04025444 382.2669817 106.18554688 382.27856445 C97.57426494 382.28868073 88.96298898 382.29501768 80.35170126 382.29721349 C75.81204071 382.29849257 71.27239725 382.30139239 66.73274231 382.30885506 C47.6644012 382.33886665 28.60856368 382.22187083 9.54492188 381.77124023 C8.70360623 381.75256901 7.86229059 381.73389778 6.99548054 381.71466076 C-5.03496885 381.44042152 -16.84836913 380.93236573 -28.609375 378.203125 C-29.47014648 378.00589844 -30.33091797 377.80867188 -31.21777344 377.60546875 C-80.50726103 365.95046779 -124.52917306 335.89052238 -151.5 292.65625 C-167.94303963 265.43439067 -179.62352461 233.72670189 -179.8125 201.59375 C-179.81955963 200.79333786 -179.82661926 199.99292572 -179.83389282 199.16825867 C-180.06178948 165.74172936 -180.06178948 165.74172936 -176.609375 151.203125 C-176.41069824 150.34090332 -176.21202148 149.47868164 -176.00732422 148.59033203 C-164.35385641 99.27914126 -134.29562806 55.28261308 -91.0625 28.3125 C-63.84064067 11.86946037 -32.13295189 0.18897539 0 0 Z " fill="#FF0000" transform="translate(208.609375,31.796875)"/>
<path d="M0 0 C7.35489734 -0.09333035 14.70966372 -0.16408039 22.06503677 -0.20724869 C25.48172407 -0.22798401 28.89800158 -0.25603762 32.31445312 -0.30175781 C36.25645777 -0.35417147 40.19830569 -0.37306136 44.140625 -0.390625 C45.95074066 -0.42159271 45.95074066 -0.42159271 47.79742432 -0.45318604 C58.59898525 -0.4559986 68.04170481 1.52817707 76.28125 8.828125 C81.65774221 15.62205606 82.60148439 21.52159936 82.375 30.0625 C82.35848389 31.10019531 82.34196777 32.13789063 82.32495117 33.20703125 C82.25319584 36.47374841 82.13653211 39.73537636 82 43 C81.95601074 44.06589355 81.91202148 45.13178711 81.86669922 46.22998047 C81.71861605 49.32353785 81.52662079 52.41036291 81.3125 55.5 C81.2594873 56.43593994 81.20647461 57.37187988 81.15185547 58.33618164 C80.63133621 64.54137826 79.10226099 69.21716623 75 74 C71.14149746 77.03030294 66.67601449 78.63141039 62 80 C65.33617201 82.22411467 68.77567661 83.7591706 72.4296875 85.390625 C75.83853323 87.52503904 77.76893869 89.64748486 80 93 C80.44292529 95.84029715 80.57102389 97.99508356 80.4375 100.8125 C80.41719727 101.60003662 80.39689453 102.38757324 80.37597656 103.19897461 C80.2832904 106.13467257 80.14076257 109.06621171 80 112 C79.9213082 114.02150497 79.8426326 116.04301059 79.76429749 118.06452942 C79.64470084 120.99626569 79.50447089 123.92675347 79.35818481 126.85726929 C79.28677927 128.31279424 79.22001172 129.76855506 79.15817261 131.22451782 C78.7393505 140.69337964 78.17806686 149.70203893 72.10546875 157.40234375 C64.36008369 163.60180674 57.46913936 166.13294979 47.46557617 166.11352539 C46.16460495 166.11344986 44.86363373 166.11337433 43.52323914 166.11329651 C42.11314861 166.10819062 40.70305849 166.10297464 39.29296875 166.09765625 C37.84279937 166.09578979 36.39262935 166.09436696 34.94245911 166.09336853 C31.13667034 166.0895613 27.33092009 166.07974642 23.52514648 166.06866455 C19.63721233 166.05841177 15.74927192 166.05386264 11.86132812 166.04882812 C4.24086791 166.03812246 -3.37956064 166.0210677 -11 166 C-9.1806324 127.67042925 -9.1806324 127.67042925 -7.67797852 111.07055664 C-7.13993382 105.02615088 -6.78903613 99.0010788 -6.5625 92.9375 C-6.13571194 81.77647166 -5.24341937 70.65909414 -4.36166382 59.52694702 C-3.34559732 46.69306498 -2.43063311 33.85822315 -1.64672852 21.00805664 C-1.57510498 19.8452417 -1.50348145 18.68242676 -1.4296875 17.484375 C-1.37022949 16.49147461 -1.31077148 15.49857422 -1.24951172 14.47558594 C-0.9026476 9.64392489 -0.45088627 4.8229222 0 0 Z " fill="#FFFCFC" transform="translate(238,139)"/>
<path d="M0 0 C0.78526062 -0.0066568 1.57052124 -0.0133136 2.37957764 -0.02017212 C4.03346434 -0.03024504 5.68739125 -0.03499081 7.34130859 -0.03466797 C9.83891755 -0.0390268 12.3347357 -0.07536136 14.83203125 -0.11328125 C26.66123384 -0.19769123 37.11574272 0.74994857 46.015625 9.44921875 C52.23111257 16.80725919 51.04836437 26.2691186 50.609375 35.3359375 C50.114375 40.2859375 50.114375 40.2859375 49.609375 45.3359375 C40.369375 45.3359375 31.129375 45.3359375 21.609375 45.3359375 C21.859375 36.0859375 21.859375 36.0859375 21.96972656 33.19042969 C22.07286741 28.15634826 22.07286741 28.15634826 19.78125 23.7890625 C14.60408096 20.3252012 8.60534396 20.78940929 2.609375 21.3359375 C-1.09633203 22.58164057 -1.09633203 22.58164057 -3.390625 25.3359375 C-6.16896483 32.21563612 -6.00716725 39.99208863 -6.30712891 47.34375 C-6.38476345 49.19608297 -6.48633013 51.04737038 -6.58984375 52.8984375 C-6.62722656 53.9503125 -6.66460937 55.0021875 -6.703125 56.0859375 C-6.74050781 57.00890625 -6.77789062 57.931875 -6.81640625 58.8828125 C-6.23683494 62.22199397 -5.02035496 63.24181197 -2.390625 65.3359375 C0.26665874 66.94556573 0.26665874 66.94556573 3.359375 68.3984375 C3.94283691 68.68517334 4.52629883 68.97190918 5.12744141 69.26733398 C9.24436286 71.26681896 13.40923849 73.1525286 17.5859375 75.0234375 C18.63942383 75.49773193 19.69291016 75.97202637 20.77832031 76.46069336 C22.87490632 77.40090011 24.9756939 78.33180736 27.08105469 79.25219727 C34.19532848 82.43572439 41.18494373 85.6992906 45.609375 92.3359375 C45.79140552 94.87823516 45.85553299 97.29231262 45.8125 99.83203125 C45.8054303 100.58085068 45.7983606 101.3296701 45.79107666 102.10118103 C45.67194734 110.08186496 45.1814003 118.03240939 44.54736328 125.98706055 C44.35712595 128.42728666 44.19217358 130.86848845 44.02734375 133.31054688 C43.90517991 134.89334832 43.78153669 136.47603643 43.65625 138.05859375 C43.6112738 138.77330338 43.56629761 139.488013 43.5199585 140.22438049 C42.88060357 147.55611362 39.73027694 154.0267671 34.609375 159.3359375 C31.734375 161.1015625 31.734375 161.1015625 28.609375 162.5859375 C27.578125 163.08609375 26.546875 163.58625 25.484375 164.1015625 C20.38431076 166.29126399 15.76860378 166.52197482 10.2578125 166.57421875 C9.44373932 166.5822905 8.62966614 166.59036224 7.79092407 166.59867859 C6.06783152 166.61249093 4.34471194 166.6232258 2.62158203 166.63110352 C0.87410361 166.64258944 -0.87334067 166.66298732 -2.62060547 166.69262695 C-13.81173908 166.88228923 -23.53937256 167.0025021 -32.828125 159.8984375 C-37.94367711 154.78288539 -40.45254295 149.09913687 -40.62109375 141.84765625 C-40.61714903 140.23952439 -40.60262464 138.63138757 -40.578125 137.0234375 C-40.57748047 136.20037109 -40.57683594 135.37730469 -40.57617188 134.52929688 C-40.53126298 128.47657548 -40.53126298 128.47657548 -39.390625 127.3359375 C-37.31800424 127.24826638 -35.24242206 127.22897877 -33.16796875 127.23828125 C-31.27788086 127.24311523 -31.27788086 127.24311523 -29.34960938 127.24804688 C-28.00911391 127.25640347 -26.66861912 127.26486843 -25.328125 127.2734375 C-23.98372558 127.2784509 -22.6393244 127.28301408 -21.29492188 127.28710938 C-17.99344559 127.29894262 -14.69205697 127.31542779 -11.390625 127.3359375 C-11.44863281 128.21636719 -11.50664062 129.09679687 -11.56640625 130.00390625 C-11.97622249 137.15991543 -11.97622249 137.15991543 -9.359375 143.61328125 C-5.63121815 145.77659331 -3.18811163 145.97149477 1.109375 145.8984375 C2.3984375 145.89972656 3.6875 145.90101563 5.015625 145.90234375 C9.19388013 145.24381441 10.8376954 144.52260056 13.609375 141.3359375 C14.33675265 138.68730075 14.71777148 136.59110596 14.921875 133.8984375 C14.98745605 133.16850586 15.05303711 132.43857422 15.12060547 131.68652344 C15.31810248 129.23756051 15.46575564 126.78862144 15.609375 124.3359375 C15.67592285 123.42247559 15.7424707 122.50901367 15.81103516 121.56787109 C16.00268997 118.74059876 16.12832634 115.91760976 16.234375 113.0859375 C16.29407471 112.19334229 16.35377441 111.30074707 16.4152832 110.38110352 C16.46134908 107.79722643 16.32818658 105.81747768 15.609375 103.3359375 C14.08977962 101.85874392 14.08977962 101.85874392 12.08398438 100.80322266 C10.99484238 100.17661743 10.99484238 100.17661743 9.88369751 99.53735352 C6.36652932 97.67940146 2.79677139 95.99365617 -0.8359375 94.375 C-2.42350216 93.64914808 -4.010732 92.92256348 -5.59765625 92.1953125 C-8.06056269 91.0731744 -10.5254844 89.95653269 -12.99658203 88.85253906 C-15.40886899 87.77158174 -17.81019741 86.66882014 -20.2109375 85.5625 C-20.94232941 85.24246002 -21.67372131 84.92242004 -22.42727661 84.59268188 C-27.6223957 82.17129639 -31.18484177 79.12103848 -34.390625 74.3359375 C-37.85890521 63.93109688 -35.25421334 49.71813416 -34.640625 38.9609375 C-34.5789917 37.69016357 -34.5173584 36.41938965 -34.45385742 35.11010742 C-33.86787852 25.80077076 -32.62970921 15.00351506 -25.390625 8.3359375 C-17.27116132 2.67648646 -9.87765123 0.02976089 0 0 Z " fill="#FFFBFB" transform="translate(157.390625,138.6640625)"/>
<path d="M0 0 C3.37483413 -0.08767555 6.74937215 -0.14061628 10.125 -0.1875 C11.55199219 -0.22520508 11.55199219 -0.22520508 13.0078125 -0.26367188 C19.29293363 -0.32914189 23.569314 0.26129459 28.6340332 4.30444336 C30.45392351 6.5634493 30.37330902 7.92481927 30.36328125 10.8046875 C30.36424805 11.77116211 30.36521484 12.73763672 30.36621094 13.73339844 C30.33962402 15.28849121 30.33962402 15.28849121 30.3125 16.875 C30.3012207 17.93750977 30.28994141 19.00001953 30.27832031 20.09472656 C30.15586439 27.32821951 29.83502852 34.53912389 29.25 41.75 C29.18852783 42.62382324 29.12705566 43.49764648 29.0637207 44.39794922 C28.69885615 48.20993303 28.44747199 50.40460339 26.109375 53.515625 C22.49166812 56.06141873 19.53725131 56.11947843 15.23828125 56.09765625 C14.12001953 56.09443359 13.00175781 56.09121094 11.84960938 56.08789062 C10.68236328 56.07951172 9.51511719 56.07113281 8.3125 56.0625 C7.13365234 56.05798828 5.95480469 56.05347656 4.74023438 56.04882812 C1.82677211 56.03703273 -1.08658863 56.0205727 -4 56 C-3.93941406 55.1332666 -3.87882812 54.2665332 -3.81640625 53.37353516 C-3.32516109 46.19663228 -2.87913254 39.01967001 -2.5 31.8359375 C-2.45883057 31.06179504 -2.41766113 30.28765259 -2.37524414 29.49005127 C-2.20628831 26.30483865 -2.03813109 23.11959889 -1.875 19.93408203 C-1.75328893 17.56784769 -1.62700916 15.20189258 -1.5 12.8359375 C-1.44682617 11.76404678 -1.44682617 11.76404678 -1.39257812 10.67050171 C-1.19351257 7.02953382 -0.82857863 3.55339396 0 0 Z " fill="#FF0404" transform="translate(260,229)"/>
<path d="M0 0 C3.37470504 -0.11689626 6.7488843 -0.18747934 10.125 -0.25 C11.07632812 -0.28351563 12.02765625 -0.31703125 13.0078125 -0.3515625 C19.01309024 -0.43496914 22.44285058 -0.03419785 27 4 C28.13901729 6.27803458 28.12894822 7.54867623 28.1328125 10.078125 C28.13506836 10.9028833 28.13732422 11.7276416 28.13964844 12.57739258 C28.13239746 13.90033325 28.13239746 13.90033325 28.125 15.25 C28.11774902 16.59904419 28.11774902 16.59904419 28.11035156 17.9753418 C28.08651 20.65060364 28.04790316 23.32506729 28 26 C27.98743164 26.72590332 27.97486328 27.45180664 27.96191406 28.19970703 C27.6388239 41.64751089 27.6388239 41.64751089 23 47 C15.55228705 51.5270412 6.42948586 50.25863195 -2 50 C-2.30782829 33.24045983 -1.38042039 16.70088386 0 0 Z " fill="#FF0505" transform="translate(264,159)"/>
</svg>
